# xmcd CD database file
#
# Track frame offsets:
#	150
#	26947
#	53312
#	84965
#	120647
#	140782
#	176180
#	193020
#	226212
#	245517
#
# Disc length: 3493 seconds
#
# Revision: 0
# Processed by: cddbd v1.5.2PL0 Copyright (c) Steve Scherf et al.
# Submitted via: CDex 1.70beta3
#
DISCID=840da30a
DTITLE=Miles Davis - 'Round About Midnight
DYEAR=1956
DGENRE=Jazz
TTITLE0='Round Midnight
TTITLE1=Ah-Leu-Cha
TTITLE2=All Of You
TTITLE3=Bye Bye Blackbird
TTITLE4=Tadd's Delight
TTITLE5=Dear Old Stockholm
TTITLE6=Two Bass Hit
TTITLE7=Little Melonae
TTITLE8=Budo
TTITLE9=Sweet Sue, Just You
EXTD=YEAR: 1956
EXTT0=
EXTT1=
EXTT2=
EXTT3=
EXTT4=
EXTT5=
EXTT6=
EXTT7=
EXTT8=
EXTT9=
PLAYORDER=
